<svg xmlns="http://www.w3.org/2000/svg" viewBox="0 0 390 844" width="390" height="844">
  <defs>
    <style>text { font-family: -apple-system, BlinkMacSystemFont, 'Segoe UI', Arial, sans-serif; }</style>
    <filter id="shadow"><feDropShadow dx="0" dy="2" stdDeviation="6" flood-color="#00000018"/></filter>
  </defs>

  <!-- Background -->
  <rect width="390" height="844" fill="#f3f4f6"/>

  <!-- Status Bar -->
  <rect width="390" height="44" fill="#1a56db"/>
  <text x="20" y="28" fill="white" font-size="13" font-weight="600">9:41</text>
  <text x="340" y="28" fill="white" font-size="11">▐▐▐ 🔋</text>

  <!-- Header -->
  <rect width="390" height="110" y="44" fill="#1a56db"/>
  <text x="20" y="78" fill="rgba(255,255,255,0.75)" font-size="13">Good morning,</text>
  <text x="20" y="102" fill="white" font-size="22" font-weight="700">Jean-Claude 👋</text>
  <!-- Notification bell -->
  <circle cx="350" cy="82" r="18" fill="rgba(255,255,255,0.15)"/>
  <text x="350" y="88" fill="white" font-size="18" text-anchor="middle">🔔</text>
  <!-- Avatar -->
  <circle cx="308" cy="82" r="18" fill="#2563eb" stroke="rgba(255,255,255,0.4)" stroke-width="2"/>
  <text x="308" y="88" fill="white" font-size="14" text-anchor="middle" font-weight="700">JC</text>

  <!-- Portfolio Card -->
  <rect x="16" y="168" width="358" height="140" rx="16" fill="white" filter="url(#shadow)"/>
  <text x="32" y="196" fill="#6b7280" font-size="13">Total Portfolio Value</text>
  <text x="32" y="230" fill="#111827" font-size="32" font-weight="700">2,450,000 XAF</text>
  <rect x="32" y="240" width="110" height="24" rx="12" fill="#dcfce7"/>
  <text x="87" y="256" fill="#16a34a" font-size="12" font-weight="600" text-anchor="middle">▲ +3.2% today</text>
  <!-- Bar -->
  <rect x="32" y="278" width="326" height="8" rx="4" fill="#e5e7eb"/>
  <rect x="32" y="278" width="210" height="8" rx="4" fill="#1a56db"/>
  <text x="32" y="298" fill="#9ca3af" font-size="11">Invested: 1,850,000 XAF</text>
  <text x="358" y="298" fill="#10b981" font-size="11" text-anchor="end">Gain: +600,000 XAF</text>

  <!-- Quick Actions -->
  <text x="20" y="336" fill="#111827" font-size="16" font-weight="700">Quick Actions</text>
  <rect x="16" y="346" width="175" height="54" rx="12" fill="#1a56db" filter="url(#shadow)"/>
  <text x="103" y="371" fill="white" font-size="13" font-weight="600" text-anchor="middle">📈  Buy Assets</text>
  <rect x="199" y="346" width="175" height="54" rx="12" fill="white" stroke="#1a56db" stroke-width="1.5" filter="url(#shadow)"/>
  <text x="286" y="371" fill="#1a56db" font-size="13" font-weight="600" text-anchor="middle">📉  Sell Assets</text>

  <!-- Market Snapshot -->
  <text x="20" y="428" fill="#111827" font-size="16" font-weight="700">Market Snapshot</text>
  <text x="370" y="428" fill="#1a56db" font-size="13" text-anchor="end">See all</text>

  <!-- Asset Row 1 -->
  <rect x="16" y="438" width="358" height="66" rx="12" fill="white" filter="url(#shadow)"/>
  <circle cx="50" cy="471" r="18" fill="#fef3c7"/>
  <text x="50" y="477" fill="#d97706" font-size="16" text-anchor="middle">🏠</text>
  <text x="78" y="463" fill="#111827" font-size="14" font-weight="600">Immo Plus</text>
  <text x="78" y="481" fill="#6b7280" font-size="12">IMMO · Real Estate</text>
  <text x="358" y="463" fill="#111827" font-size="14" font-weight="600" text-anchor="end">5,200 XAF</text>
  <text x="358" y="481" fill="#10b981" font-size="12" text-anchor="end">▲ +1.8%</text>

  <!-- Asset Row 2 -->
  <rect x="16" y="512" width="358" height="66" rx="12" fill="white" filter="url(#shadow)"/>
  <circle cx="50" cy="545" r="18" fill="#ede9fe"/>
  <text x="50" y="551" fill="#7c3aed" font-size="16" text-anchor="middle">📊</text>
  <text x="78" y="537" fill="#111827" font-size="14" font-weight="600">TechGrowth</text>
  <text x="78" y="555" fill="#6b7280" font-size="12">TECH · Stocks</text>
  <text x="358" y="537" fill="#111827" font-size="14" font-weight="600" text-anchor="end">12,500 XAF</text>
  <text x="358" y="555" fill="#ef4444" font-size="12" text-anchor="end">▼ -0.5%</text>

  <!-- Asset Row 3 -->
  <rect x="16" y="586" width="358" height="66" rx="12" fill="white" filter="url(#shadow)"/>
  <circle cx="50" cy="619" r="18" fill="#fce7f3"/>
  <text x="50" y="625" fill="#db2777" font-size="16" text-anchor="middle">🌾</text>
  <text x="78" y="611" fill="#111827" font-size="14" font-weight="600">AgriCam Bond</text>
  <text x="78" y="629" fill="#6b7280" font-size="12">AGRI · Agriculture</text>
  <text x="358" y="611" fill="#111827" font-size="14" font-weight="600" text-anchor="end">1,000 XAF</text>
  <text x="358" y="629" fill="#10b981" font-size="12" text-anchor="end">▲ +0.2%</text>

  <!-- Recent Activity -->
  <text x="20" y="682" fill="#111827" font-size="16" font-weight="700">Recent Activity</text>
  <text x="370" y="682" fill="#1a56db" font-size="13" text-anchor="end">See all</text>

  <!-- Transaction 1 -->
  <rect x="16" y="692" width="358" height="56" rx="12" fill="white" filter="url(#shadow)"/>
  <circle cx="44" cy="720" r="14" fill="#dbeafe"/>
  <text x="44" y="725" fill="#1a56db" font-size="14" text-anchor="middle">↑</text>
  <text x="68" y="713" fill="#111827" font-size="13" font-weight="600">Bought Immo Plus</text>
  <text x="68" y="730" fill="#9ca3af" font-size="12">Mar 15, 2026</text>
  <text x="358" y="713" fill="#ef4444" font-size="13" font-weight="600" text-anchor="end">-52,000 XAF</text>
  <text x="358" y="730" fill="#6b7280" font-size="12" text-anchor="end">10 units</text>

  <!-- Transaction 2 -->
  <rect x="16" y="756" width="358" height="56" rx="12" fill="white" filter="url(#shadow)"/>
  <circle cx="44" cy="784" r="14" fill="#d1fae5"/>
  <text x="44" y="789" fill="#10b981" font-size="14" text-anchor="middle">↓</text>
  <text x="68" y="777" fill="#111827" font-size="13" font-weight="600">Sold TechGrowth</text>
  <text x="68" y="794" fill="#9ca3af" font-size="12">Mar 12, 2026</text>
  <text x="358" y="777" fill="#10b981" font-size="13" font-weight="600" text-anchor="end">+125,000 XAF</text>
  <text x="358" y="794" fill="#6b7280" font-size="12" text-anchor="end">10 units</text>

  <!-- Bottom Nav -->
  <rect x="0" y="796" width="390" height="48" fill="white" stroke="#e5e7eb" stroke-width="1"/>
  <text x="48" y="826" fill="#1a56db" font-size="10" text-anchor="middle" font-weight="600">🏠 Home</text>
  <text x="146" y="826" fill="#9ca3af" font-size="10" text-anchor="middle">📊 Market</text>
  <text x="244" y="826" fill="#9ca3af" font-size="10" text-anchor="middle">💼 Portfolio</text>
  <text x="342" y="826" fill="#9ca3af" font-size="10" text-anchor="middle">📋 History</text>
</svg>
