<svg xmlns="http://www.w3.org/2000/svg" viewBox="0 0 390 844" width="390" height="844">
  <defs>
    <style>text { font-family: -apple-system, BlinkMacSystemFont, 'Segoe UI', Arial, sans-serif; }</style>
    <filter id="shadow"><feDropShadow dx="0" dy="2" stdDeviation="6" flood-color="#00000018"/></filter>
  </defs>

  <!-- Background -->
  <rect width="390" height="844" fill="#f3f4f6"/>

  <!-- Status Bar -->
  <rect width="390" height="44" fill="#1a56db"/>
  <text x="20" y="28" fill="white" font-size="13" font-weight="600">9:41</text>
  <text x="340" y="28" fill="white" font-size="11">▐▐▐ 🔋</text>

  <!-- Header -->
  <rect width="390" height="76" y="44" fill="#1a56db"/>
  <text x="195" y="90" fill="white" font-size="20" font-weight="700" text-anchor="middle">Market</text>

  <!-- Search Bar -->
  <rect x="16" y="132" width="358" height="44" rx="12" fill="white" filter="url(#shadow)"/>
  <text x="40" y="159" fill="#9ca3af" font-size="14">🔍  Search assets...</text>

  <!-- Category Filters -->
  <rect x="0" y="186" width="390" height="44" fill="white"/>
  <!-- All - active -->
  <rect x="12" y="194" width="38" height="28" rx="14" fill="#1a56db"/>
  <text x="31" y="212" fill="white" font-size="12" font-weight="600" text-anchor="middle">All</text>
  <!-- Real Estate -->
  <rect x="58" y="194" width="82" height="28" rx="14" fill="#f3f4f6"/>
  <text x="99" y="212" fill="#6b7280" font-size="12" text-anchor="middle">🏠 Real Est.</text>
  <!-- Stocks -->
  <rect x="148" y="194" width="56" height="28" rx="14" fill="#f3f4f6"/>
  <text x="176" y="212" fill="#6b7280" font-size="12" text-anchor="middle">📊 Stocks</text>
  <!-- Bonds -->
  <rect x="212" y="194" width="52" height="28" rx="14" fill="#f3f4f6"/>
  <text x="238" y="212" fill="#6b7280" font-size="12" text-anchor="middle">📄 Bonds</text>
  <!-- Crypto -->
  <rect x="272" y="194" width="54" height="28" rx="14" fill="#f3f4f6"/>
  <text x="299" y="212" fill="#6b7280" font-size="12" text-anchor="middle">₿ Crypto</text>
  <!-- More -->
  <rect x="334" y="194" width="46" height="28" rx="14" fill="#f3f4f6"/>
  <text x="357" y="212" fill="#6b7280" font-size="12" text-anchor="middle">More</text>

  <!-- Section label -->
  <text x="20" y="254" fill="#111827" font-size="15" font-weight="700">42 Assets Available</text>
  <text x="370" y="254" fill="#1a56db" font-size="13" text-anchor="end">⇅ Sort</text>

  <!-- Asset Card 1 - Real Estate -->
  <rect x="16" y="264" width="358" height="80" rx="14" fill="white" filter="url(#shadow)"/>
  <circle cx="52" cy="304" r="22" fill="#fef3c7"/>
  <text x="52" y="311" fill="#d97706" font-size="20" text-anchor="middle">🏠</text>
  <text x="84" y="293" fill="#111827" font-size="15" font-weight="700">Immo Plus</text>
  <text x="84" y="310" fill="#9ca3af" font-size="12">IMMO · Real Estate</text>
  <rect x="84" y="318" width="60" height="18" rx="9" fill="#dcfce7"/>
  <text x="114" y="331" fill="#16a34a" font-size="11" font-weight="600" text-anchor="middle">● Active</text>
  <text x="310" y="291" fill="#111827" font-size="16" font-weight="700" text-anchor="middle">5,200 XAF</text>
  <text x="310" y="309" fill="#10b981" font-size="12" text-anchor="middle">▲ +1.8%</text>
  <rect x="270" y="320" width="62" height="28" rx="8" fill="#1a56db"/>
  <text x="301" y="338" fill="white" font-size="12" font-weight="600" text-anchor="middle">Buy</text>

  <!-- Asset Card 2 - Stocks -->
  <rect x="16" y="352" width="358" height="80" rx="14" fill="white" filter="url(#shadow)"/>
  <circle cx="52" cy="392" r="22" fill="#ede9fe"/>
  <text x="52" y="399" fill="#7c3aed" font-size="20" text-anchor="middle">📊</text>
  <text x="84" y="381" fill="#111827" font-size="15" font-weight="700">TechGrowth</text>
  <text x="84" y="398" fill="#9ca3af" font-size="12">TECH · Stocks</text>
  <rect x="84" y="406" width="60" height="18" rx="9" fill="#dcfce7"/>
  <text x="114" y="419" fill="#16a34a" font-size="11" font-weight="600" text-anchor="middle">● Active</text>
  <text x="310" y="379" fill="#111827" font-size="16" font-weight="700" text-anchor="middle">12,500 XAF</text>
  <text x="310" y="397" fill="#ef4444" font-size="12" text-anchor="middle">▼ -0.5%</text>
  <rect x="270" y="408" width="62" height="28" rx="8" fill="#1a56db"/>
  <text x="301" y="426" fill="white" font-size="12" font-weight="600" text-anchor="middle">Buy</text>

  <!-- Asset Card 3 - Bond -->
  <rect x="16" y="440" width="358" height="80" rx="14" fill="white" filter="url(#shadow)"/>
  <circle cx="52" cy="480" r="22" fill="#fce7f3"/>
  <text x="52" y="487" fill="#db2777" font-size="20" text-anchor="middle">📄</text>
  <text x="84" y="469" fill="#111827" font-size="15" font-weight="700">AgriCam Bond 2026</text>
  <text x="84" y="486" fill="#9ca3af" font-size="12">AGRI · Agriculture · 6.5% p.a.</text>
  <rect x="84" y="494" width="60" height="18" rx="9" fill="#dcfce7"/>
  <text x="114" y="507" fill="#16a34a" font-size="11" font-weight="600" text-anchor="middle">● Active</text>
  <text x="310" y="467" fill="#111827" font-size="16" font-weight="700" text-anchor="middle">1,000 XAF</text>
  <text x="310" y="485" fill="#10b981" font-size="12" text-anchor="middle">▲ +0.2%</text>
  <rect x="270" y="496" width="62" height="28" rx="8" fill="#1a56db"/>
  <text x="301" y="514" fill="white" font-size="12" font-weight="600" text-anchor="middle">Buy</text>

  <!-- Asset Card 4 - Crypto -->
  <rect x="16" y="528" width="358" height="80" rx="14" fill="white" filter="url(#shadow)"/>
  <circle cx="52" cy="568" r="22" fill="#fef9c3"/>
  <text x="52" y="575" fill="#ca8a04" font-size="20" text-anchor="middle">₿</text>
  <text x="84" y="557" fill="#111827" font-size="15" font-weight="700">CryptoCam Token</text>
  <text x="84" y="574" fill="#9ca3af" font-size="12">CCT · Crypto</text>
  <rect x="84" y="582" width="60" height="18" rx="9" fill="#dcfce7"/>
  <text x="114" y="595" fill="#16a34a" font-size="11" font-weight="600" text-anchor="middle">● Active</text>
  <text x="310" y="555" fill="#111827" font-size="16" font-weight="700" text-anchor="middle">850 XAF</text>
  <text x="310" y="573" fill="#10b981" font-size="12" text-anchor="middle">▲ +5.4%</text>
  <rect x="270" y="584" width="62" height="28" rx="8" fill="#1a56db"/>
  <text x="301" y="602" fill="white" font-size="12" font-weight="600" text-anchor="middle">Buy</text>

  <!-- Asset Card 5 - Commodities -->
  <rect x="16" y="616" width="358" height="80" rx="14" fill="white" filter="url(#shadow)"/>
  <circle cx="52" cy="656" r="22" fill="#d1fae5"/>
  <text x="52" y="663" fill="#059669" font-size="20" text-anchor="middle">🛢</text>
  <text x="84" y="645" fill="#111827" font-size="15" font-weight="700">GoldCam Commodity</text>
  <text x="84" y="662" fill="#9ca3af" font-size="12">GCC · Commodities</text>
  <rect x="84" y="670" width="60" height="18" rx="9" fill="#dcfce7"/>
  <text x="114" y="683" fill="#16a34a" font-size="11" font-weight="600" text-anchor="middle">● Active</text>
  <text x="310" y="643" fill="#111827" font-size="16" font-weight="700" text-anchor="middle">3,200 XAF</text>
  <text x="310" y="661" fill="#ef4444" font-size="12" text-anchor="middle">▼ -1.1%</text>
  <rect x="270" y="672" width="62" height="28" rx="8" fill="#1a56db"/>
  <text x="301" y="690" fill="white" font-size="12" font-weight="600" text-anchor="middle">Buy</text>

  <!-- Asset Card 6 - Halted -->
  <rect x="16" y="704" width="358" height="80" rx="14" fill="white" filter="url(#shadow)"/>
  <circle cx="52" cy="744" r="22" fill="#f3f4f6"/>
  <text x="52" y="751" fill="#9ca3af" font-size="20" text-anchor="middle">🏗</text>
  <text x="84" y="733" fill="#111827" font-size="15" font-weight="700">BuildCam REIT</text>
  <text x="84" y="750" fill="#9ca3af" font-size="12">BCR · Real Estate</text>
  <rect x="84" y="758" width="56" height="18" rx="9" fill="#fef3c7"/>
  <text x="112" y="771" fill="#d97706" font-size="11" font-weight="600" text-anchor="middle">⏸ Halted</text>
  <text x="310" y="731" fill="#111827" font-size="16" font-weight="700" text-anchor="middle">7,800 XAF</text>
  <text x="310" y="749" fill="#9ca3af" font-size="12" text-anchor="middle">-- --</text>
  <rect x="270" y="760" width="62" height="28" rx="8" fill="#e5e7eb"/>
  <text x="301" y="778" fill="#9ca3af" font-size="12" font-weight="600" text-anchor="middle">Buy</text>

  <!-- Bottom Nav -->
  <rect x="0" y="796" width="390" height="48" fill="white" stroke="#e5e7eb" stroke-width="1"/>
  <text x="48" y="826" fill="#9ca3af" font-size="10" text-anchor="middle">🏠 Home</text>
  <text x="146" y="826" fill="#1a56db" font-size="10" text-anchor="middle" font-weight="600">📊 Market</text>
  <text x="244" y="826" fill="#9ca3af" font-size="10" text-anchor="middle">💼 Portfolio</text>
  <text x="342" y="826" fill="#9ca3af" font-size="10" text-anchor="middle">📋 History</text>
</svg>
