<svg xmlns="http://www.w3.org/2000/svg" viewBox="0 0 390 844" width="390" height="844">
  <defs>
    <style>text { font-family: -apple-system, BlinkMacSystemFont, 'Segoe UI', Arial, sans-serif; }</style>
    <filter id="shadow"><feDropShadow dx="0" dy="2" stdDeviation="6" flood-color="#00000018"/></filter>
  </defs>

  <!-- Background -->
  <rect width="390" height="844" fill="#f3f4f6"/>

  <!-- Status Bar -->
  <rect width="390" height="44" fill="#1a56db"/>
  <text x="20" y="28" fill="white" font-size="13" font-weight="600">9:41</text>
  <text x="340" y="28" fill="white" font-size="11">▐▐▐ 🔋</text>

  <!-- Header -->
  <rect width="390" height="76" y="44" fill="#1a56db"/>
  <text x="36" y="90" fill="white" font-size="20">←</text>
  <text x="195" y="90" fill="white" font-size="18" font-weight="700" text-anchor="middle">Asset Detail</text>
  <text x="362" y="90" fill="white" font-size="18">♡</text>

  <!-- Asset Header Card -->
  <rect x="16" y="132" width="358" height="110" rx="14" fill="white" filter="url(#shadow)"/>
  <circle cx="56" cy="182" r="28" fill="#fef3c7"/>
  <text x="56" y="191" fill="#d97706" font-size="26" text-anchor="middle">🏠</text>
  <text x="96" y="166" fill="#111827" font-size="18" font-weight="700">Immo Plus</text>
  <text x="96" y="184" fill="#9ca3af" font-size="13">IMMO · Real Estate</text>
  <rect x="96" y="193" width="58" height="20" rx="10" fill="#dcfce7"/>
  <text x="125" y="207" fill="#16a34a" font-size="11" font-weight="600" text-anchor="middle">● Active</text>
  <rect x="278" y="160" width="76" height="22" rx="11" fill="#dbeafe"/>
  <text x="316" y="175" fill="#1e40af" font-size="11" font-weight="600" text-anchor="middle">📅 Sub. Open</text>
  <!-- Lock-up badge -->
  <text x="96" y="232" fill="#9ca3af" font-size="11">🔒 Lock-up: 90 days</text>

  <!-- Price Block -->
  <rect x="16" y="252" width="358" height="100" rx="14" fill="white" filter="url(#shadow)"/>
  <text x="32" y="278" fill="#6b7280" font-size="13">Ask Price (Buy at)</text>
  <text x="32" y="308" fill="#111827" font-size="28" font-weight="700">5,200 XAF</text>
  <rect x="32" y="316" width="96" height="22" rx="11" fill="#dcfce7"/>
  <text x="80" y="331" fill="#16a34a" font-size="12" font-weight="600" text-anchor="middle">▲ +1.8% today</text>
  <!-- Bid / Ask -->
  <text x="260" y="278" fill="#6b7280" font-size="12" text-anchor="middle">Bid</text>
  <text x="340" y="278" fill="#6b7280" font-size="12" text-anchor="middle">Ask</text>
  <text x="260" y="298" fill="#10b981" font-size="15" font-weight="700" text-anchor="middle">5,100</text>
  <text x="340" y="298" fill="#ef4444" font-size="15" font-weight="700" text-anchor="middle">5,200</text>
  <line x1="245" y1="265" x2="245" y2="345" stroke="#e5e7eb" stroke-width="1"/>
  <text x="260" y="320" fill="#9ca3af" font-size="11" text-anchor="middle">H: 5,250</text>
  <text x="340" y="320" fill="#9ca3af" font-size="11" text-anchor="middle">L: 5,050</text>
  <text x="260" y="338" fill="#9ca3af" font-size="11" text-anchor="middle">Open: 5,100</text>
  <text x="340" y="338" fill="#9ca3af" font-size="11" text-anchor="middle">Vol: 1.2M</text>

  <!-- Price Chart -->
  <rect x="16" y="362" width="358" height="160" rx="14" fill="white" filter="url(#shadow)"/>
  <text x="32" y="386" fill="#111827" font-size="14" font-weight="600">Price History</text>
  <!-- Period tabs -->
  <rect x="178" y="374" width="30" height="22" rx="11" fill="#1a56db"/>
  <text x="193" y="389" fill="white" font-size="11" font-weight="600" text-anchor="middle">1M</text>
  <text x="240" y="389" fill="#9ca3af" font-size="11" text-anchor="middle">3M</text>
  <text x="272" y="389" fill="#9ca3af" font-size="11" text-anchor="middle">1Y</text>
  <text x="304" y="389" fill="#9ca3af" font-size="11" text-anchor="middle">ALL</text>
  <text x="148" y="389" fill="#9ca3af" font-size="11" text-anchor="middle">1W</text>
  <text x="116" y="389" fill="#9ca3af" font-size="11" text-anchor="middle">1D</text>
  <!-- Chart area -->
  <rect x="28" y="400" width="334" height="100" rx="8" fill="#f8fafc"/>
  <!-- Y axis labels -->
  <text x="34" y="415" fill="#9ca3af" font-size="10">5,300</text>
  <text x="34" y="450" fill="#9ca3af" font-size="10">5,100</text>
  <text x="34" y="492" fill="#9ca3af" font-size="10">4,900</text>
  <!-- Chart line (price chart approximation) -->
  <polyline points="68,490 100,480 130,470 160,465 190,475 220,460 250,450 280,442 310,438 340,432 355,428" fill="none" stroke="#1a56db" stroke-width="2.5" stroke-linecap="round" stroke-linejoin="round"/>
  <!-- Fill area under line -->
  <polygon points="68,490 100,480 130,470 160,465 190,475 220,460 250,450 280,442 310,438 340,432 355,428 355,500 68,500" fill="rgba(26,86,219,0.08)"/>
  <!-- Dot at end -->
  <circle cx="355" cy="428" r="4" fill="#1a56db"/>
  <!-- X axis labels -->
  <text x="68" y="510" fill="#9ca3af" font-size="10" text-anchor="middle">Feb 15</text>
  <text x="210" y="510" fill="#9ca3af" font-size="10" text-anchor="middle">Mar 1</text>
  <text x="355" y="510" fill="#9ca3af" font-size="10" text-anchor="middle">Mar 17</text>

  <!-- Key Stats -->
  <rect x="16" y="532" width="358" height="106" rx="14" fill="white" filter="url(#shadow)"/>
  <text x="32" y="556" fill="#111827" font-size="14" font-weight="600">Key Statistics</text>
  <!-- Stat grid 2x3 -->
  <text x="32" y="578" fill="#9ca3af" font-size="12">Total Supply</text>
  <text x="32" y="594" fill="#111827" font-size="13" font-weight="600">10,000,000 units</text>
  <text x="200" y="578" fill="#9ca3af" font-size="12">Available</text>
  <text x="200" y="594" fill="#111827" font-size="13" font-weight="600">3,450,000 units</text>
  <text x="32" y="616" fill="#9ca3af" font-size="12">Min. Order</text>
  <text x="32" y="632" fill="#111827" font-size="13" font-weight="600">5,200 XAF</text>
  <text x="200" y="616" fill="#9ca3af" font-size="12">Income Type</text>
  <text x="200" y="632" fill="#111827" font-size="13" font-weight="600">🏠 Rent · 5.2% p.a.</text>
  <line x1="16" y1="600" x2="374" y2="600" stroke="#f3f4f6" stroke-width="1"/>

  <!-- Income Info -->
  <rect x="16" y="648" width="358" height="70" rx="14" fill="#eff6ff" filter="url(#shadow)"/>
  <text x="32" y="672" fill="#1e40af" font-size="14" font-weight="600">💰 Next Income Payment</text>
  <text x="32" y="692" fill="#1d4ed8" font-size="13">Apr 01, 2026</text>
  <text x="32" y="708" fill="#1d4ed8" font-size="12">Est. 270 XAF/unit · Quarterly distribution</text>

  <!-- Action Buttons -->
  <rect x="16" y="730" width="172" height="52" rx="12" fill="#1a56db" filter="url(#shadow)"/>
  <text x="102" y="761" fill="white" font-size="16" font-weight="700" text-anchor="middle">📈  Buy</text>
  <rect x="202" y="730" width="172" height="52" rx="12" fill="white" stroke="#1a56db" stroke-width="1.5" filter="url(#shadow)"/>
  <text x="288" y="761" fill="#1a56db" font-size="16" font-weight="700" text-anchor="middle">📉  Sell</text>

  <!-- Bottom Nav -->
  <rect x="0" y="796" width="390" height="48" fill="white" stroke="#e5e7eb" stroke-width="1"/>
  <text x="48" y="826" fill="#9ca3af" font-size="10" text-anchor="middle">🏠 Home</text>
  <text x="146" y="826" fill="#1a56db" font-size="10" text-anchor="middle" font-weight="600">📊 Market</text>
  <text x="244" y="826" fill="#9ca3af" font-size="10" text-anchor="middle">💼 Portfolio</text>
  <text x="342" y="826" fill="#9ca3af" font-size="10" text-anchor="middle">📋 History</text>
</svg>
