<svg xmlns="http://www.w3.org/2000/svg" viewBox="0 0 390 844" width="390" height="844">
  <defs>
    <style>text { font-family: -apple-system, BlinkMacSystemFont, 'Segoe UI', Arial, sans-serif; }</style>
    <filter id="shadow"><feDropShadow dx="0" dy="2" stdDeviation="6" flood-color="#00000018"/></filter>
  </defs>

  <!-- Background -->
  <rect width="390" height="844" fill="#f3f4f6"/>

  <!-- Status Bar -->
  <rect width="390" height="44" fill="#1a56db"/>
  <text x="20" y="28" fill="white" font-size="13" font-weight="600">9:41</text>
  <text x="340" y="28" fill="white" font-size="11">▐▐▐ 🔋</text>

  <!-- Header -->
  <rect width="390" height="76" y="44" fill="#1a56db"/>
  <text x="195" y="90" fill="white" font-size="20" font-weight="700" text-anchor="middle">My Portfolio</text>
  <text x="362" y="90" fill="white" font-size="18">⋯</text>

  <!-- Portfolio Summary Card -->
  <rect x="16" y="132" width="358" height="120" rx="16" fill="white" filter="url(#shadow)"/>
  <text x="32" y="160" fill="#6b7280" font-size="13">Total Portfolio Value</text>
  <text x="32" y="194" fill="#111827" font-size="30" font-weight="700">2,450,000 XAF</text>
  <rect x="32" y="202" width="110" height="24" rx="12" fill="#dcfce7"/>
  <text x="87" y="218" fill="#16a34a" font-size="12" font-weight="600" text-anchor="middle">▲ +24,500 XAF today</text>
  <!-- Stats -->
  <line x1="32" y1="240" x2="358" y2="240" stroke="#f3f4f6" stroke-width="1"/>
  <text x="80" y="228" fill="#6b7280" font-size="11">Invested</text>
  <text x="80" y="244" fill="#111827" font-size="12" font-weight="600">1,850,000 XAF</text>
  <text x="230" y="228" fill="#6b7280" font-size="11">Total Gain</text>
  <text x="230" y="244" fill="#10b981" font-size="12" font-weight="600">+600,000 XAF (+32.4%)</text>

  <!-- Allocation Donut (simplified as arc) -->
  <rect x="16" y="264" width="358" height="110" rx="14" fill="white" filter="url(#shadow)"/>
  <text x="32" y="288" fill="#111827" font-size="14" font-weight="600">Asset Allocation</text>
  <!-- Donut (simplified arcs) -->
  <circle cx="100" cy="335" r="36" fill="none" stroke="#e5e7eb" stroke-width="12"/>
  <circle cx="100" cy="335" r="36" fill="none" stroke="#1a56db" stroke-width="12" stroke-dasharray="90 136" stroke-dashoffset="0" stroke-linecap="round"/>
  <circle cx="100" cy="335" r="36" fill="none" stroke="#7c3aed" stroke-width="12" stroke-dasharray="55 171" stroke-dashoffset="-90" stroke-linecap="round"/>
  <circle cx="100" cy="335" r="36" fill="none" stroke="#10b981" stroke-width="12" stroke-dasharray="40 186" stroke-dashoffset="-145" stroke-linecap="round"/>
  <text x="100" y="339" fill="#111827" font-size="11" font-weight="600" text-anchor="middle">4 assets</text>
  <!-- Legend -->
  <rect x="154" y="298" width="10" height="10" rx="2" fill="#1a56db"/>
  <text x="170" y="308" fill="#6b7280" font-size="12">Real Estate 40%</text>
  <rect x="154" y="318" width="10" height="10" rx="2" fill="#7c3aed"/>
  <text x="170" y="328" fill="#6b7280" font-size="12">Stocks 30%</text>
  <rect x="154" y="338" width="10" height="10" rx="2" fill="#10b981"/>
  <text x="170" y="348" fill="#6b7280" font-size="12">Agriculture 18%</text>
  <rect x="154" y="358" width="10" height="10" rx="2" fill="#f59e0b"/>
  <text x="170" y="368" fill="#6b7280" font-size="12">Crypto 12%</text>

  <!-- Holdings title -->
  <text x="20" y="398" fill="#111827" font-size="16" font-weight="700">Holdings (4)</text>

  <!-- Holding Card 1 -->
  <rect x="16" y="408" width="358" height="82" rx="14" fill="white" filter="url(#shadow)"/>
  <circle cx="46" cy="449" r="20" fill="#fef3c7"/>
  <text x="46" y="456" fill="#d97706" font-size="18" text-anchor="middle">🏠</text>
  <text x="76" y="438" fill="#111827" font-size="14" font-weight="700">Immo Plus</text>
  <text x="76" y="456" fill="#9ca3af" font-size="12">IMMO · 10 units</text>
  <text x="76" y="474" fill="#10b981" font-size="12" font-weight="600">+8.2% · +4,300 XAF</text>
  <text x="358" y="438" fill="#111827" font-size="15" font-weight="700" text-anchor="end">52,000 XAF</text>
  <text x="358" y="456" fill="#9ca3af" font-size="12" text-anchor="end">avg. 4,780/unit</text>
  <rect x="296" y="463" width="60" height="26" rx="8" fill="#fef2f2" stroke="#ef4444" stroke-width="1"/>
  <text x="326" y="480" fill="#ef4444" font-size="12" font-weight="600" text-anchor="middle">Sell</text>

  <!-- Holding Card 2 -->
  <rect x="16" y="498" width="358" height="82" rx="14" fill="white" filter="url(#shadow)"/>
  <circle cx="46" cy="539" r="20" fill="#ede9fe"/>
  <text x="46" y="546" fill="#7c3aed" font-size="18" text-anchor="middle">📊</text>
  <text x="76" y="528" fill="#111827" font-size="14" font-weight="700">TechGrowth</text>
  <text x="76" y="546" fill="#9ca3af" font-size="12">TECH · 8 units</text>
  <text x="76" y="564" fill="#ef4444" font-size="12" font-weight="600">-2.1% · -2,100 XAF</text>
  <text x="358" y="528" fill="#111827" font-size="15" font-weight="700" text-anchor="end">100,000 XAF</text>
  <text x="358" y="546" fill="#9ca3af" font-size="12" text-anchor="end">avg. 13,262/unit</text>
  <rect x="296" y="553" width="60" height="26" rx="8" fill="#fef2f2" stroke="#ef4444" stroke-width="1"/>
  <text x="326" y="570" fill="#ef4444" font-size="12" font-weight="600" text-anchor="middle">Sell</text>

  <!-- Holding Card 3 - Bond -->
  <rect x="16" y="588" width="358" height="82" rx="14" fill="white" filter="url(#shadow)"/>
  <circle cx="46" cy="629" r="20" fill="#fce7f3"/>
  <text x="46" y="636" fill="#db2777" font-size="18" text-anchor="middle">📄</text>
  <text x="76" y="618" fill="#111827" font-size="14" font-weight="700">AgriCam Bond 2026</text>
  <text x="76" y="636" fill="#9ca3af" font-size="12">AGRI · 500 units</text>
  <text x="76" y="654" fill="#10b981" font-size="12" font-weight="600">+0.8% · +4,000 XAF</text>
  <text x="358" y="618" fill="#111827" font-size="15" font-weight="700" text-anchor="end">500,000 XAF</text>
  <text x="358" y="636" fill="#9ca3af" font-size="12" text-anchor="end">avg. 992/unit</text>
  <rect x="276" y="643" width="80" height="26" rx="8" fill="#fef9c3"/>
  <text x="316" y="660" fill="#ca8a04" font-size="11" font-weight="600" text-anchor="middle">🔒 Locked</text>

  <!-- Holding Card 4 - Crypto -->
  <rect x="16" y="678" width="358" height="82" rx="14" fill="white" filter="url(#shadow)"/>
  <circle cx="46" cy="719" r="20" fill="#fef9c3"/>
  <text x="46" y="726" fill="#ca8a04" font-size="18" text-anchor="middle">₿</text>
  <text x="76" y="708" fill="#111827" font-size="14" font-weight="700">CryptoCam Token</text>
  <text x="76" y="726" fill="#9ca3af" font-size="12">CCT · 200 units</text>
  <text x="76" y="744" fill="#10b981" font-size="12" font-weight="600">+15.3% · +22,950 XAF</text>
  <text x="358" y="708" fill="#111827" font-size="15" font-weight="700" text-anchor="end">170,000 XAF</text>
  <text x="358" y="726" fill="#9ca3af" font-size="12" text-anchor="end">avg. 736/unit</text>
  <rect x="296" y="733" width="60" height="26" rx="8" fill="#fef2f2" stroke="#ef4444" stroke-width="1"/>
  <text x="326" y="750" fill="#ef4444" font-size="12" font-weight="600" text-anchor="middle">Sell</text>

  <!-- Bottom Nav -->
  <rect x="0" y="796" width="390" height="48" fill="white" stroke="#e5e7eb" stroke-width="1"/>
  <text x="48" y="826" fill="#9ca3af" font-size="10" text-anchor="middle">🏠 Home</text>
  <text x="146" y="826" fill="#9ca3af" font-size="10" text-anchor="middle">📊 Market</text>
  <text x="244" y="826" fill="#1a56db" font-size="10" text-anchor="middle" font-weight="600">💼 Portfolio</text>
  <text x="342" y="826" fill="#9ca3af" font-size="10" text-anchor="middle">📋 History</text>
</svg>
