<svg xmlns="http://www.w3.org/2000/svg" viewBox="0 0 390 844" width="390" height="844">
  <defs>
    <style>text { font-family: -apple-system, BlinkMacSystemFont, 'Segoe UI', Arial, sans-serif; }</style>
    <filter id="shadow"><feDropShadow dx="0" dy="2" stdDeviation="6" flood-color="#00000018"/></filter>
  </defs>

  <!-- Background -->
  <rect width="390" height="844" fill="#f3f4f6"/>

  <!-- Status Bar -->
  <rect width="390" height="44" fill="#1a56db"/>
  <text x="20" y="28" fill="white" font-size="13" font-weight="600">9:41</text>
  <text x="340" y="28" fill="white" font-size="11">▐▐▐ 🔋</text>

  <!-- Header -->
  <rect width="390" height="76" y="44" fill="#1a56db"/>
  <text x="195" y="90" fill="white" font-size="20" font-weight="700" text-anchor="middle">Order History</text>
  <text x="362" y="90" fill="white" font-size="18">⬇</text>

  <!-- Filter Tabs -->
  <rect x="0" y="120" width="390" height="44" fill="white"/>
  <rect x="12" y="128" width="48" height="28" rx="14" fill="#1a56db"/>
  <text x="36" y="146" fill="white" font-size="12" font-weight="600" text-anchor="middle">All</text>
  <text x="98" y="146" fill="#9ca3af" font-size="12" text-anchor="middle">Buy</text>
  <text x="152" y="146" fill="#9ca3af" font-size="12" text-anchor="middle">Sell</text>
  <text x="214" y="146" fill="#9ca3af" font-size="12" text-anchor="middle">Income</text>
  <text x="282" y="146" fill="#9ca3af" font-size="12" text-anchor="middle">Pending</text>

  <!-- Date group: Mar 17 -->
  <text x="20" y="186" fill="#6b7280" font-size="12" font-weight="600">Today · Mar 17, 2026</text>

  <!-- Order 1 - BUY (Processing) -->
  <rect x="16" y="196" width="358" height="82" rx="14" fill="white" filter="url(#shadow)"/>
  <circle cx="46" cy="237" r="20" fill="#dcfce7"/>
  <text x="46" y="243" fill="#16a34a" font-size="18" text-anchor="middle">↑</text>
  <text x="76" y="222" fill="#111827" font-size="14" font-weight="700">Immo Plus</text>
  <text x="76" y="240" fill="#9ca3af" font-size="12">IMMO · 10 units · Buy</text>
  <text x="76" y="258" fill="#9ca3af" font-size="12">09:41 · #ORD-2026-031745</text>
  <rect x="254" y="218" width="100" height="22" rx="11" fill="#fef9c3"/>
  <text x="304" y="233" fill="#ca8a04" font-size="12" font-weight="600" text-anchor="middle">⏳ Processing</text>
  <text x="358" y="255" fill="#ef4444" font-size="14" font-weight="700" text-anchor="end">-52,260 XAF</text>

  <!-- Order 2 - SELL (Processing) -->
  <rect x="16" y="286" width="358" height="82" rx="14" fill="white" filter="url(#shadow)"/>
  <circle cx="46" cy="327" r="20" fill="#fecaca"/>
  <text x="46" y="333" fill="#ef4444" font-size="18" text-anchor="middle">↓</text>
  <text x="76" y="312" fill="#111827" font-size="14" font-weight="700">Immo Plus</text>
  <text x="76" y="330" fill="#9ca3af" font-size="12">IMMO · 5 units · Sell</text>
  <text x="76" y="348" fill="#9ca3af" font-size="12">09:43 · #ORD-2026-031788</text>
  <rect x="254" y="308" width="100" height="22" rx="11" fill="#fef9c3"/>
  <text x="304" y="323" fill="#ca8a04" font-size="12" font-weight="600" text-anchor="middle">⏳ Processing</text>
  <text x="358" y="345" fill="#10b981" font-size="14" font-weight="700" text-anchor="end">+25,372 XAF</text>

  <!-- Date group: Mar 15 -->
  <text x="20" y="392" fill="#6b7280" font-size="12" font-weight="600">Mar 15, 2026</text>

  <!-- Order 3 - BUY (Completed) -->
  <rect x="16" y="402" width="358" height="82" rx="14" fill="white" filter="url(#shadow)"/>
  <circle cx="46" cy="443" r="20" fill="#dcfce7"/>
  <text x="46" y="449" fill="#16a34a" font-size="18" text-anchor="middle">↑</text>
  <text x="76" y="428" fill="#111827" font-size="14" font-weight="700">AgriCam Bond 2026</text>
  <text x="76" y="446" fill="#9ca3af" font-size="12">AGRI · 500 units · Buy</text>
  <text x="76" y="464" fill="#9ca3af" font-size="12">14:20 · #ORD-2026-031401</text>
  <rect x="254" y="424" width="100" height="22" rx="11" fill="#dcfce7"/>
  <text x="304" y="439" fill="#16a34a" font-size="12" font-weight="600" text-anchor="middle">✓ Completed</text>
  <text x="358" y="461" fill="#ef4444" font-size="14" font-weight="700" text-anchor="end">-502,500 XAF</text>

  <!-- Date group: Mar 12 -->
  <text x="20" y="508" fill="#6b7280" font-size="12" font-weight="600">Mar 12, 2026</text>

  <!-- Order 4 - SELL (Completed) -->
  <rect x="16" y="518" width="358" height="82" rx="14" fill="white" filter="url(#shadow)"/>
  <circle cx="46" cy="559" r="20" fill="#fecaca"/>
  <text x="46" y="565" fill="#ef4444" font-size="18" text-anchor="middle">↓</text>
  <text x="76" y="544" fill="#111827" font-size="14" font-weight="700">TechGrowth</text>
  <text x="76" y="562" fill="#9ca3af" font-size="12">TECH · 10 units · Sell</text>
  <text x="76" y="580" fill="#9ca3af" font-size="12">10:15 · #ORD-2026-030982</text>
  <rect x="254" y="540" width="100" height="22" rx="11" fill="#dcfce7"/>
  <text x="304" y="555" fill="#16a34a" font-size="12" font-weight="600" text-anchor="middle">✓ Completed</text>
  <text x="358" y="577" fill="#10b981" font-size="14" font-weight="700" text-anchor="end">+124,375 XAF</text>

  <!-- Income entry -->
  <!-- Date group: Apr 15 (upcoming) -->
  <text x="20" y="628" fill="#6b7280" font-size="12" font-weight="600">Mar 10, 2026</text>

  <!-- Order 5 - Income received -->
  <rect x="16" y="638" width="358" height="82" rx="14" fill="white" filter="url(#shadow)"/>
  <circle cx="46" cy="679" r="20" fill="#d1fae5"/>
  <text x="46" y="685" fill="#059669" font-size="18" text-anchor="middle">💰</text>
  <text x="76" y="664" fill="#111827" font-size="14" font-weight="700">Income Received</text>
  <text x="76" y="682" fill="#9ca3af" font-size="12">TechGrowth · Dividend</text>
  <text x="76" y="700" fill="#9ca3af" font-size="12">Auto · #INC-2026-000145</text>
  <rect x="254" y="660" width="100" height="22" rx="11" fill="#dcfce7"/>
  <text x="304" y="675" fill="#16a34a" font-size="12" font-weight="600" text-anchor="middle">✓ Paid</text>
  <text x="358" y="697" fill="#10b981" font-size="14" font-weight="700" text-anchor="end">+17,170 XAF</text>

  <!-- Failed Order -->
  <rect x="16" y="728" width="358" height="56" rx="14" fill="white" filter="url(#shadow)"/>
  <circle cx="46" cy="756" r="20" fill="#fee2e2"/>
  <text x="46" y="762" fill="#ef4444" font-size="18" text-anchor="middle">✕</text>
  <text x="76" y="746" fill="#111827" font-size="13" font-weight="700">CryptoCam Token · Buy · 100 units</text>
  <text x="76" y="764" fill="#9ca3af" font-size="12">Mar 8, 2026 · #ORD-2026-030540</text>
  <rect x="266" y="741" width="88" height="22" rx="11" fill="#fee2e2"/>
  <text x="310" y="756" fill="#ef4444" font-size="12" font-weight="600" text-anchor="middle">✕ Failed</text>

  <!-- Bottom Nav -->
  <rect x="0" y="796" width="390" height="48" fill="white" stroke="#e5e7eb" stroke-width="1"/>
  <text x="48" y="826" fill="#9ca3af" font-size="10" text-anchor="middle">🏠 Home</text>
  <text x="146" y="826" fill="#9ca3af" font-size="10" text-anchor="middle">📊 Market</text>
  <text x="244" y="826" fill="#9ca3af" font-size="10" text-anchor="middle">💼 Portfolio</text>
  <text x="342" y="826" fill="#1a56db" font-size="10" text-anchor="middle" font-weight="600">📋 History</text>
</svg>
