<svg xmlns="http://www.w3.org/2000/svg" viewBox="0 0 390 844" width="390" height="844">
  <defs>
    <style>text { font-family: -apple-system, BlinkMacSystemFont, 'Segoe UI', Arial, sans-serif; }</style>
    <filter id="shadow"><feDropShadow dx="0" dy="2" stdDeviation="6" flood-color="#00000018"/></filter>
  </defs>

  <!-- Background -->
  <rect width="390" height="844" fill="#f3f4f6"/>

  <!-- Status Bar -->
  <rect width="390" height="44" fill="#1a56db"/>
  <text x="20" y="28" fill="white" font-size="13" font-weight="600">9:41</text>
  <text x="340" y="28" fill="white" font-size="11">▐▐▐ 🔋</text>

  <!-- Header -->
  <rect width="390" height="76" y="44" fill="#1a56db"/>
  <text x="36" y="90" fill="white" font-size="20">←</text>
  <text x="195" y="90" fill="white" font-size="18" font-weight="700" text-anchor="middle">Order Detail</text>

  <!-- Reference + Status -->
  <rect x="16" y="132" width="358" height="72" rx="14" fill="white" filter="url(#shadow)"/>
  <text x="32" y="158" fill="#6b7280" font-size="12">Order Reference</text>
  <text x="32" y="180" fill="#111827" font-size="17" font-weight="700">#ORD-2026-031401</text>
  <rect x="256" y="148" width="100" height="26" rx="13" fill="#dcfce7"/>
  <text x="306" y="165" fill="#16a34a" font-size="13" font-weight="600" text-anchor="middle">✓ Completed</text>
  <text x="32" y="196" fill="#9ca3af" font-size="12">Mar 15, 2026 · 14:20</text>

  <!-- Status Timeline -->
  <rect x="16" y="216" width="358" height="120" rx="14" fill="white" filter="url(#shadow)"/>
  <text x="32" y="240" fill="#111827" font-size="14" font-weight="600">Status Timeline</text>

  <!-- Timeline steps -->
  <!-- Step 1 - Submitted -->
  <circle cx="48" cy="268" r="10" fill="#16a34a"/>
  <text x="48" y="273" fill="white" font-size="10" font-weight="700" text-anchor="middle">✓</text>
  <text x="66" y="265" fill="#111827" font-size="13" font-weight="600">Submitted</text>
  <text x="66" y="280" fill="#9ca3af" font-size="11">Mar 15 · 14:20:03</text>
  <!-- Connector -->
  <line x1="48" y1="278" x2="48" y2="298" stroke="#16a34a" stroke-width="2" stroke-dasharray="2,2"/>
  <!-- Step 2 - Processing -->
  <circle cx="48" cy="298" r="10" fill="#16a34a"/>
  <text x="48" y="303" fill="white" font-size="10" font-weight="700" text-anchor="middle">✓</text>
  <text x="66" y="295" fill="#111827" font-size="13" font-weight="600">Processing</text>
  <text x="66" y="310" fill="#9ca3af" font-size="11">Mar 15 · 14:21:45</text>
  <!-- Connector -->
  <line x1="48" y1="308" x2="48" y2="326" stroke="#16a34a" stroke-width="2" stroke-dasharray="2,2"/>
  <!-- Step 3 - Completed -->
  <circle cx="48" cy="326" r="10" fill="#16a34a"/>
  <text x="48" y="331" fill="white" font-size="10" font-weight="700" text-anchor="middle">✓</text>
  <text x="66" y="323" fill="#111827" font-size="13" font-weight="600">Completed</text>
  <text x="66" y="338" fill="#9ca3af" font-size="11">Mar 15 · 14:25:10</text>

  <!-- Asset + Order Type -->
  <rect x="16" y="348" width="358" height="80" rx="14" fill="white" filter="url(#shadow)"/>
  <circle cx="50" cy="388" r="22" fill="#fce7f3"/>
  <text x="50" y="395" fill="#db2777" font-size="20" text-anchor="middle">📄</text>
  <text x="82" y="376" fill="#111827" font-size="15" font-weight="700">AgriCam Bond 2026</text>
  <text x="82" y="394" fill="#9ca3af" font-size="12">AGRI · Agriculture</text>
  <rect x="82" y="402" width="58" height="20" rx="10" fill="#dcfce7"/>
  <text x="111" y="416" fill="#16a34a" font-size="11" font-weight="600" text-anchor="middle">📈 BUY</text>

  <!-- Order Breakdown -->
  <rect x="16" y="440" width="358" height="210" rx="14" fill="white" filter="url(#shadow)"/>
  <text x="32" y="466" fill="#111827" font-size="14" font-weight="600">Order Breakdown</text>
  <line x1="32" y1="476" x2="358" y2="476" stroke="#f3f4f6" stroke-width="1"/>

  <text x="32" y="500" fill="#6b7280" font-size="13">Units purchased</text>
  <text x="358" y="500" fill="#111827" font-size="14" font-weight="700" text-anchor="end">500 units</text>
  <line x1="32" y1="510" x2="358" y2="510" stroke="#f3f4f6" stroke-width="1"/>

  <text x="32" y="534" fill="#6b7280" font-size="13">Price per unit (Ask)</text>
  <text x="358" y="534" fill="#111827" font-size="13" text-anchor="end">1,000 XAF</text>
  <line x1="32" y1="544" x2="358" y2="544" stroke="#f3f4f6" stroke-width="1"/>

  <text x="32" y="568" fill="#6b7280" font-size="13">Subtotal</text>
  <text x="358" y="568" fill="#111827" font-size="13" text-anchor="end">500,000 XAF</text>
  <line x1="32" y1="578" x2="358" y2="578" stroke="#f3f4f6" stroke-width="1"/>

  <text x="32" y="602" fill="#6b7280" font-size="13">Trading fee (0.5%)</text>
  <text x="358" y="602" fill="#ef4444" font-size="13" text-anchor="end">+2,500 XAF</text>
  <line x1="32" y1="612" x2="358" y2="612" stroke="#e5e7eb" stroke-width="2"/>

  <text x="32" y="638" fill="#111827" font-size="15" font-weight="700">Total paid</text>
  <text x="358" y="638" fill="#1a56db" font-size="18" font-weight="700" text-anchor="end">502,500 XAF</text>

  <!-- Lock-up info (BUY specific) -->
  <rect x="16" y="662" width="358" height="56" rx="12" fill="#fffbeb"/>
  <text x="32" y="684" fill="#92400e" font-size="13" font-weight="600">🔒 Lock-up Period</text>
  <text x="32" y="702" fill="#92400e" font-size="12">Expires: Jun 14, 2026 · Units locked for 90 days from purchase</text>

  <!-- Next income -->
  <rect x="16" y="730" width="358" height="50" rx="12" fill="#eff6ff"/>
  <text x="32" y="751" fill="#1e40af" font-size="12" font-weight="600">💰 Next coupon payment</text>
  <text x="358" y="751" fill="#1e40af" font-size="13" font-weight="700" text-anchor="end">+32,500 XAF</text>
  <text x="32" y="769" fill="#6b7280" font-size="11">Apr 30, 2026 · 65 XAF/unit × 500 units</text>

  <!-- Back Button -->
  <text x="195" y="792" fill="#1a56db" font-size="14" text-anchor="middle">← Back to History</text>

  <!-- Bottom Nav -->
  <rect x="0" y="796" width="390" height="48" fill="white" stroke="#e5e7eb" stroke-width="1"/>
  <text x="48" y="826" fill="#9ca3af" font-size="10" text-anchor="middle">🏠 Home</text>
  <text x="146" y="826" fill="#9ca3af" font-size="10" text-anchor="middle">📊 Market</text>
  <text x="244" y="826" fill="#9ca3af" font-size="10" text-anchor="middle">💼 Portfolio</text>
  <text x="342" y="826" fill="#1a56db" font-size="10" text-anchor="middle" font-weight="600">📋 History</text>
</svg>
