<svg xmlns="http://www.w3.org/2000/svg" viewBox="0 0 390 844" width="390" height="844">
  <defs>
    <style>text { font-family: -apple-system, BlinkMacSystemFont, 'Segoe UI', Arial, sans-serif; }</style>
    <filter id="shadow"><feDropShadow dx="0" dy="2" stdDeviation="6" flood-color="#00000018"/></filter>
  </defs>

  <!-- Background -->
  <rect width="390" height="844" fill="#f3f4f6"/>

  <!-- Status Bar -->
  <rect width="390" height="44" fill="#1a56db"/>
  <text x="20" y="28" fill="white" font-size="13" font-weight="600">9:41</text>
  <text x="340" y="28" fill="white" font-size="11">▐▐▐ 🔋</text>

  <!-- Header -->
  <rect width="390" height="76" y="44" fill="#1a56db"/>
  <text x="36" y="90" fill="white" font-size="20">←</text>
  <text x="195" y="90" fill="white" font-size="18" font-weight="700" text-anchor="middle">Asset Detail</text>
  <text x="362" y="90" fill="white" font-size="18">♡</text>

  <!-- Asset Header Card -->
  <rect x="16" y="132" width="358" height="96" rx="14" fill="white" filter="url(#shadow)"/>
  <circle cx="56" cy="178" r="26" fill="#d1fae5"/>
  <text x="56" y="186" fill="#059669" font-size="24" text-anchor="middle">🏗</text>
  <text x="92" y="162" fill="#111827" font-size="17" font-weight="700">BuildCam REIT</text>
  <text x="92" y="180" fill="#9ca3af" font-size="13">BCR · Real Estate</text>
  <rect x="92" y="188" width="56" height="20" rx="10" fill="#dcfce7"/>
  <text x="120" y="202" fill="#16a34a" font-size="11" font-weight="600" text-anchor="middle">● Active</text>
  <rect x="280" y="158" width="80" height="22" rx="11" fill="#f3f4f6"/>
  <text x="320" y="173" fill="#6b7280" font-size="11" font-weight="600" text-anchor="middle">📋 Info below</text>

  <!-- Price Block -->
  <rect x="16" y="240" width="358" height="88" rx="14" fill="white" filter="url(#shadow)"/>
  <text x="32" y="266" fill="#6b7280" font-size="13">Ask Price (Buy at)</text>
  <text x="32" y="296" fill="#111827" font-size="28" font-weight="700">7,800 XAF</text>
  <rect x="32" y="304" width="96" height="22" rx="11" fill="#dcfce7"/>
  <text x="80" y="319" fill="#16a34a" font-size="12" font-weight="600" text-anchor="middle">▲ +0.9% today</text>
  <text x="260" y="266" fill="#6b7280" font-size="12" text-anchor="middle">Bid</text>
  <text x="340" y="266" fill="#6b7280" font-size="12" text-anchor="middle">Ask</text>
  <text x="260" y="288" fill="#10b981" font-size="15" font-weight="700" text-anchor="middle">7,720</text>
  <text x="340" y="288" fill="#ef4444" font-size="15" font-weight="700" text-anchor="middle">7,800</text>
  <line x1="245" y1="254" x2="245" y2="320" stroke="#e5e7eb" stroke-width="1"/>

  <!-- Price Chart (abbreviated) -->
  <rect x="16" y="340" width="358" height="120" rx="14" fill="white" filter="url(#shadow)"/>
  <text x="32" y="364" fill="#111827" font-size="14" font-weight="600">Price History</text>
  <rect x="178" y="352" width="30" height="22" rx="11" fill="#1a56db"/>
  <text x="193" y="367" fill="white" font-size="11" font-weight="600" text-anchor="middle">1M</text>
  <text x="240" y="367" fill="#9ca3af" font-size="11" text-anchor="middle">3M</text>
  <text x="272" y="367" fill="#9ca3af" font-size="11" text-anchor="middle">1Y</text>
  <text x="304" y="367" fill="#9ca3af" font-size="11" text-anchor="middle">ALL</text>
  <rect x="28" y="378" width="334" height="68" rx="8" fill="#f8fafc"/>
  <polyline points="40,430 80,422 120,418 160,408 200,414 240,402 280,396 330,388 362,382" fill="none" stroke="#1a56db" stroke-width="2.5" stroke-linecap="round" stroke-linejoin="round"/>
  <polygon points="40,430 80,422 120,418 160,408 200,414 240,402 280,396 330,388 362,382 362,446 40,446" fill="rgba(26,86,219,0.07)"/>
  <circle cx="362" cy="382" r="4" fill="#1a56db"/>

  <!-- Key Stats -->
  <rect x="16" y="472" width="358" height="90" rx="14" fill="white" filter="url(#shadow)"/>
  <text x="32" y="496" fill="#111827" font-size="14" font-weight="600">Key Statistics</text>
  <text x="32" y="520" fill="#9ca3af" font-size="12">Total Supply</text>
  <text x="32" y="536" fill="#111827" font-size="13" font-weight="600">5,000,000 units</text>
  <text x="200" y="520" fill="#9ca3af" font-size="12">Available</text>
  <text x="200" y="536" fill="#111827" font-size="13" font-weight="600">1,960,000 units</text>
  <text x="32" y="554" fill="#9ca3af" font-size="12">Min. Order</text>
  <text x="32" y="548" fill="#111827" font-size="13" font-weight="600">10 units (78,000 XAF)</text>
  <text x="200" y="554" fill="#9ca3af" font-size="12">Lock-up Period</text>
  <text x="200" y="548" fill="#111827" font-size="13" font-weight="600">180 days</text>

  <!-- ★ ISSUANCE PERIOD — informational only, no action -->
  <rect x="16" y="574" width="358" height="86" rx="14" fill="#f8fafc" stroke="#e5e7eb" stroke-width="1" filter="url(#shadow)"/>
  <text x="32" y="598" fill="#374151" font-size="14" font-weight="600">📋  Issuance Period</text>
  <!-- Info note -->
  <rect x="238" y="585" width="124" height="20" rx="10" fill="#e5e7eb"/>
  <text x="300" y="599" fill="#6b7280" font-size="11" text-anchor="middle">Reference only</text>
  <text x="32" y="622" fill="#6b7280" font-size="13">Original subscription start</text>
  <text x="358" y="622" fill="#374151" font-size="13" font-weight="600" text-anchor="end">Mar 1, 2026</text>
  <line x1="32" y1="632" x2="358" y2="632" stroke="#e5e7eb" stroke-width="1"/>
  <text x="32" y="650" fill="#6b7280" font-size="13">Original subscription end</text>
  <text x="358" y="650" fill="#374151" font-size="13" font-weight="600" text-anchor="end">Apr 30, 2026</text>
  <!-- Informational note — NOT a gate -->
  <text x="32" y="652" fill="#9ca3af" font-size="11">ⓘ  Issuance period is for reference only. Trading is open.</text>

  <!-- Income Info -->
  <rect x="16" y="672" width="358" height="58" rx="14" fill="#eff6ff" filter="url(#shadow)"/>
  <text x="32" y="696" fill="#1e40af" font-size="14" font-weight="600">💰 Income Type</text>
  <text x="32" y="714" fill="#1d4ed8" font-size="13">Rent · 5.8% p.a. · Quarterly · Next: Jul 1, 2026</text>

  <!-- Action Buttons — fully enabled regardless of issuance period -->
  <rect x="16" y="742" width="172" height="52" rx="12" fill="#1a56db" filter="url(#shadow)"/>
  <text x="102" y="773" fill="white" font-size="16" font-weight="700" text-anchor="middle">📈  Buy</text>
  <rect x="202" y="742" width="172" height="52" rx="12" fill="white" stroke="#1a56db" stroke-width="1.5" filter="url(#shadow)"/>
  <text x="288" y="773" fill="#1a56db" font-size="16" font-weight="700" text-anchor="middle">📉  Sell</text>

  <!-- Bottom Nav -->
  <rect x="0" y="796" width="390" height="48" fill="white" stroke="#e5e7eb" stroke-width="1"/>
  <text x="48" y="826" fill="#9ca3af" font-size="10" text-anchor="middle">🏠 Home</text>
  <text x="146" y="826" fill="#1a56db" font-size="10" text-anchor="middle" font-weight="600">📊 Market</text>
  <text x="244" y="826" fill="#9ca3af" font-size="10" text-anchor="middle">💼 Portfolio</text>
  <text x="342" y="826" fill="#9ca3af" font-size="10" text-anchor="middle">📋 History</text>
</svg>
